<?xml version="1.0" encoding="UTF-8" standalone="no"?>
<svg
   viewBox="0 0 256 180"
   width="256"
   height="180"
   preserveAspectRatio="xMidYMid"
   version="1.1"
   id="svg2"
   sodipodi:docname="youtube.svg"
   inkscape:version="1.4 (86a8ad7, 2024-10-11)"
   xmlns:inkscape="http://www.inkscape.org/namespaces/inkscape"
   xmlns:sodipodi="http://sodipodi.sourceforge.net/DTD/sodipodi-0.dtd"
   xmlns="http://www.w3.org/2000/svg"
   xmlns:svg="http://www.w3.org/2000/svg">
  <defs
     id="defs2">
    <inkscape:path-effect
       effect="powerclip"
       message=""
       id="path-effect3"
       is_visible="true"
       lpeversion="1"
       inverse="true"
       flatten="false"
       hide_clip="false" />
    <clipPath
       clipPathUnits="userSpaceOnUse"
       id="clipPath3">
      <path
         fill="#ffffff"
         d="M 102.421,128.418 168.749,90 102.421,51.582 Z"
         id="path3"
         style="display:none" />
      <path
         id="lpe_path-effect3"
         class="powerclip"
         d="M -5.0001922,-5 H 260.99549 V 184.285 H -5.0001922 Z M 102.421,128.418 168.749,90 102.421,51.582 Z" />
    </clipPath>
  </defs>
  <sodipodi:namedview
     id="namedview2"
     pagecolor="#505050"
     bordercolor="#eeeeee"
     borderopacity="1"
     inkscape:showpageshadow="0"
     inkscape:pageopacity="0"
     inkscape:pagecheckerboard="0"
     inkscape:deskcolor="#505050"
     inkscape:zoom="1.6440233"
     inkscape:cx="30.109063"
     inkscape:cy="115.87427"
     inkscape:window-width="1920"
     inkscape:window-height="1017"
     inkscape:window-x="-8"
     inkscape:window-y="-8"
     inkscape:window-maximized="1"
     inkscape:current-layer="svg2" />
  <path
     d="M 250.346,28.075 A 32.18,32.18 0 0 0 227.69,5.418 C 207.824,0 127.87,0 127.87,0 c 0,0 -79.958,0.164 -99.824,5.582 A 32.18,32.18 0 0 0 5.39,28.24 c -6.009,35.298 -8.34,89.084 0.165,122.97 a 32.18,32.18 0 0 0 22.656,22.657 c 19.866,5.418 99.822,5.418 99.822,5.418 0,0 79.955,0 99.82,-5.418 A 32.18,32.18 0 0 0 250.51,151.21 c 6.338,-35.348 8.291,-89.1 -0.164,-123.134 z"
     fill="#ff0000"
     id="path1"
     clip-path="url(#clipPath3)"
     inkscape:path-effect="#path-effect3"
     inkscape:original-d="M 250.346,28.075 A 32.18,32.18 0 0 0 227.69,5.418 C 207.824,0 127.87,0 127.87,0 c 0,0 -79.958,0.164 -99.824,5.582 A 32.18,32.18 0 0 0 5.39,28.24 c -6.009,35.298 -8.34,89.084 0.165,122.97 a 32.18,32.18 0 0 0 22.656,22.657 c 19.866,5.418 99.822,5.418 99.822,5.418 0,0 79.955,0 99.82,-5.418 A 32.18,32.18 0 0 0 250.51,151.21 c 6.338,-35.348 8.291,-89.1 -0.164,-123.134 z"
     style="fill:#fff3ff;fill-opacity:1" />
</svg>
